<svg width="100" height="100" viewBox="0 0 100 100" fill="none" xmlns="http://www.w3.org/2000/svg">
<g clip-path="url(#clip0_106_3413)">
<path d="M77.4998 97.5C76.5998 97.5 75.6998 97.3 74.8998 96.9L49.9998 83.8L25.0998 96.8C23.1998 97.8 20.9998 97.6 19.2998 96.4C17.5998 95.2001 16.6998 93.1 17.0998 91L21.8998 63.3L1.69982 43.6C0.199817 42.2 -0.400183 40 0.299817 38C0.999817 36 2.69982 34.5 4.79982 34.2001L32.6998 30.2001L44.9998 4.90005C45.9998 3.00005 47.8998 1.80005 49.9998 1.80005C52.0998 1.80005 53.9998 3.00005 54.9998 4.90005L67.4998 30.1L95.3998 34.1C97.4998 34.4 99.1998 35.8001 99.8998 37.9001C100.6 39.9001 99.9998 42.1 98.4998 43.6L78.1998 63.3L82.8998 91C83.2998 93.1 82.3998 95.2001 80.6998 96.4C79.7998 97.1 78.5998 97.5 77.4998 97.5ZM49.9998 78C50.8998 78 51.7998 78.2 52.5998 78.6L77.1998 91.6L72.4998 64.2C72.1998 62.4 72.7998 60.6 74.0998 59.3L93.9998 39.8L66.4998 35.8C64.6998 35.5 63.0998 34.4 62.2998 32.8L49.9998 7.80005L37.6998 32.8C36.8998 34.4 35.2998 35.6 33.4998 35.8L5.99982 39.8L25.8998 59.2001C27.1998 60.5 27.7998 62.3 27.4998 64.1L22.7998 91.5L47.3998 78.5C48.1998 78.2 49.0998 78 49.9998 78Z" fill="#FFA900"/>
<path d="M77.4998 97.5C76.5998 97.5 75.6998 97.3 74.8998 96.9L49.9998 83.8L25.0998 96.8C23.1998 97.8 20.9998 97.6 19.2998 96.4C17.5998 95.2001 16.6998 93.1 17.0998 91L21.8998 63.3L1.69982 43.6C0.199817 42.2 -0.400183 40 0.299817 38C0.999817 36 2.69982 34.5 4.79982 34.2001L32.6998 30.2001L44.9998 4.90005C45.9998 3.00005 47.8998 1.80005 49.9998 1.80005C52.0998 1.80005 53.9998 3.00005 54.9998 4.90005L67.4998 30.1L95.3998 34.1C97.4998 34.4 99.1998 35.8001 99.8998 37.9001C100.6 39.9001 99.9998 42.1 98.4998 43.6L78.1998 63.3L82.8998 91C83.2998 93.1 82.3998 95.2001 80.6998 96.4C79.7998 97.1 78.5998 97.5 77.4998 97.5ZM49.9998 78C50.8998 78 51.7998 78.2 52.5998 78.6L77.1998 91.6L72.4998 64.2C72.1998 62.4 72.7998 60.6 74.0998 59.3L93.9998 39.8L66.4998 35.8C64.6998 35.5 63.0998 34.4 62.2998 32.8L49.9998 7.80005L37.6998 32.8C36.8998 34.4 35.2998 35.6 33.4998 35.8L5.99982 39.8L25.8998 59.2001C27.1998 60.5 27.7998 62.3 27.4998 64.1L22.7998 91.5L47.3998 78.5C48.1998 78.2 49.0998 78 49.9998 78Z" stroke="#FFA900"/>
</g>
<defs>
<clipPath id="clip0_106_3413">
<rect width="100" height="100" fill="white"/>
</clipPath>
</defs>
</svg>
