<svg width="100" height="100" viewBox="0 0 100 100" fill="none" xmlns="http://www.w3.org/2000/svg">
<path d="M99.6998 37.9999C98.9998 35.9999 97.2998 34.4999 95.1998 34.1999L67.2998 30.1999L54.9998 4.8999C53.9998 2.9999 52.0998 1.8999 49.9998 1.8999C47.8998 1.8999 45.9998 3.0999 44.9998 4.9999L32.5998 30.1999L4.69982 34.1999C2.59982 34.4999 0.899817 35.9999 0.299817 37.9999C-0.400183 39.9999 0.199817 42.1999 1.69982 43.6999L21.8998 63.2999L17.0998 90.9999C16.6998 93.0999 17.5998 95.1999 19.2998 96.3999C20.9998 97.5999 23.1998 97.7999 25.0998 96.7999L49.9998 83.7999L74.8998 96.8999C75.6998 97.2999 76.5998 97.4999 77.4998 97.4999C78.5998 97.4999 79.7998 97.0999 80.6998 96.3999C82.3998 95.1999 83.2998 93.0999 82.8998 90.9999L78.0998 63.2999L98.2998 43.6999C99.7998 42.1999 100.4 39.9999 99.6998 37.9999Z" fill="#FFA900"/>
</svg>
