<svg width="12" height="12" viewBox="0 0 12 12" fill="none" xmlns="http://www.w3.org/2000/svg">
<g clip-path="url(#clip0_76_3413)">
<path d="M12.0075 6.02646C11.9942 9.34065 9.28993 12.0132 5.97732 11.9999C2.66469 11.9867 -0.0131752 9.28773 4.87676e-05 5.97354C0.0132728 2.65934 2.71758 -0.0131814 6.0302 4.8911e-05C9.34943 0.0132792 12.0207 2.71226 12.0075 6.02646Z" fill="#221F1F"/>
<path d="M8.16609 8.97012C7.53132 10.1079 6.7445 11.0407 5.8651 11.0208C5.31629 11.0076 4.79394 10.8025 4.31789 10.4784C4.46997 10.2005 5.42871 8.81136 8.16609 8.97012ZM11.849 6.02637C11.8357 9.24795 9.20418 11.8543 5.97749 11.8345C2.75084 11.8213 0.158936 9.19503 0.158936 5.97345C0.158936 3.88305 1.20363 2.38142 2.19543 1.57437C3.41204 0.58871 4.23855 1.34284 4.52947 1.91836C4.4964 1.6736 4.39724 0.972389 4.12613 0.469637C4.72121 0.264566 5.3626 0.152108 6.03041 0.158723C9.25706 0.178569 11.8622 2.79817 11.849 6.02637ZM5.69318 2.66587C6.53953 2.09035 8.00078 1.77282 8.77437 2.97678C8.30494 0.224875 6.27504 1.8059 5.69318 2.66587ZM4.51625 5.26563C4.69478 5.06718 4.89975 4.8687 5.13779 4.69011C6.19569 3.87645 7.35281 3.67137 7.7297 4.24026C7.87516 4.45857 7.88175 4.76286 7.76936 5.09364C8.14625 4.4718 8.26525 3.89628 8.03383 3.57876C7.64374 3.04953 6.43373 3.41337 5.32952 4.39242C5.00552 4.66365 4.73444 4.96794 4.51625 5.26563ZM2.6715 5.75514C3.20707 5.85438 3.78893 5.17302 3.96746 4.22043C4.14597 3.26784 3.86166 2.42111 3.32608 2.31527C2.79051 2.21604 2.20866 2.8974 2.03013 3.84999C1.85161 4.79595 2.13593 5.6493 2.6715 5.75514ZM10.1166 4.6041C4.99232 8.03739 1.45489 6.2976 1.45489 6.2976C1.40199 7.48833 3.44511 11.1465 5.87833 11.1928C8.31817 11.2391 10.1166 4.6041 10.1166 4.6041ZM2.1756 3.86982C2.3409 2.99663 2.84341 2.36157 3.29965 2.45418C3.75586 2.54018 3.99389 3.32076 3.8352 4.19397C3.66992 5.06718 3.16739 5.70222 2.71117 5.60961C2.24833 5.52363 2.0103 4.74303 2.1756 3.86982ZM3.14757 4.61073C3.35254 4.65702 3.57735 4.40565 3.65669 4.05504C3.73604 3.70446 3.63024 3.38031 3.42527 3.34062C3.28642 3.30753 3.14096 3.41337 3.03515 3.59199C3.12773 3.63828 3.174 3.75738 3.12773 3.85659C3.08807 3.9492 2.99549 3.99552 2.90292 3.97566C2.86325 4.28658 2.96242 4.56441 3.14757 4.61073Z" fill="#05BC52"/>
</g>
<defs>
<clipPath id="clip0_76_3413">
<rect width="12" height="12" fill="white"/>
</clipPath>
</defs>
</svg>
